<svg width="12" height="12" viewBox="0 0 12 12" fill="none" xmlns="http://www.w3.org/2000/svg">
<path d="M6.875 11.25H5.125C4.89294 11.25 4.67038 11.1578 4.50628 10.9937C4.34219 10.8296 4.25 10.6071 4.25 10.375V7.05437L1.00813 3.8125C0.843805 3.64916 0.750977 3.42731 0.75 3.19563V1.625C0.75 1.39294 0.842187 1.17038 1.00628 1.00628C1.17038 0.842187 1.39294 0.75 1.625 0.75H10.375C10.6071 0.75 10.8296 0.842187 10.9937 1.00628C11.1578 1.17038 11.25 1.39294 11.25 1.625V3.19563C11.249 3.42731 11.1562 3.64916 10.9919 3.8125L7.75 7.05437V10.375C7.75 10.6071 7.65781 10.8296 7.49372 10.9937C7.32962 11.1578 7.10706 11.25 6.875 11.25ZM1.625 1.625V3.19563L5.125 6.69563V10.375H6.875V6.69563L10.375 3.19563V1.625H1.625Z" fill="#525252"/>
</svg>
