<svg width="22" height="22" viewBox="0 0 22 22" fill="none" xmlns="http://www.w3.org/2000/svg">
<path fill-rule="evenodd" clip-rule="evenodd" d="M8.99975 8.75H7.37495L6.75012 7.25H2.75L2.1248 8.75H0.5L3.9374 0.5H5.5625L8.99975 8.75ZM4.74988 2.45L3.37483 5.75H6.125L4.74988 2.45ZM12.5 7.25H21.5V8.75H12.5V7.25ZM21.5 10.25H12.5V11.75H21.5V10.25ZM17 13.25H12.5V14.75H17V13.25ZM9.5 14.75V13.25H5.75V11.75H4.25V13.25H0.5V14.75H6.6611C6.38544 15.8756 5.81131 16.9061 4.99918 17.7328C4.57349 17.2887 4.2086 16.7901 3.91408 16.25H2.25005C2.6313 17.1652 3.17653 18.0031 3.85887 18.7225C3.05483 19.2951 2.17731 19.7569 1.25 20.0953L1.77658 21.5C2.93062 21.0797 4.0153 20.4891 4.9946 19.7478C5.97764 20.4894 7.06592 21.08 8.22342 21.5L8.75 20.0953C7.82318 19.7575 6.94602 19.2966 6.1421 18.725C7.20071 17.6303 7.91266 16.2476 8.1887 14.75H9.5Z" fill="white"/>
</svg>
