<svg width="24" height="24" viewBox="0 0 24 24" fill="none" xmlns="http://www.w3.org/2000/svg">
<path d="M3 3V21H21V3H3ZM17.9539 7.26487L16.9886 8.19C16.9477 8.22114 16.9161 8.26283 16.8972 8.31058C16.8783 8.35832 16.8728 8.41032 16.8812 8.46097V15.2615C16.8728 15.3122 16.8783 15.3642 16.8972 15.4119C16.9161 15.4597 16.9477 15.5014 16.9886 15.5325L17.9313 16.4579V16.6612H13.189V16.4579L14.1658 15.51C14.2617 15.414 14.2617 15.3858 14.2617 15.2393V9.7425L11.5467 16.6394H11.1795L8.01802 9.7425V14.3648C8.00507 14.4607 8.0141 14.5583 8.04443 14.6502C8.07476 14.742 8.12559 14.8258 8.19308 14.8952L9.46327 16.4362V16.6394H5.86155V16.4362L7.13175 14.895C7.1987 14.8256 7.2484 14.7415 7.27684 14.6494C7.30528 14.5572 7.31166 14.4597 7.29548 14.3647V9.0198C7.30291 8.94663 7.29296 8.87274 7.26646 8.80414C7.23995 8.73554 7.19762 8.67416 7.14293 8.625L6.01395 7.26487V7.06162H9.51967L12.2294 13.0045L14.6118 7.06162H17.9539V7.26487Z" fill="#ADADAD"/>
</svg>
