<svg width="22" height="22" viewBox="0 0 22 22" fill="none" xmlns="http://www.w3.org/2000/svg">
<path fill-rule="evenodd" clip-rule="evenodd" d="M5.16652 2.26957C6.89323 1.11581 8.9233 0.5 11 0.5C13.7838 0.503136 16.4527 1.61039 18.4212 3.57884C20.3896 5.5473 21.4969 8.21619 21.5 11C21.5 13.0767 20.8842 15.1068 19.7304 16.8335C18.5767 18.5602 16.9368 19.906 15.0182 20.7007C13.0996 21.4955 10.9884 21.7034 8.95156 21.2982C6.91476 20.8931 5.04383 19.8931 3.57538 18.4246C2.10693 16.9562 1.1069 15.0852 0.701759 13.0484C0.296614 11.0116 0.504549 8.90045 1.29927 6.98182C2.09399 5.0632 3.4398 3.42332 5.16652 2.26957ZM15.8782 15.0809C16.5786 15.772 16.9795 16.7105 16.9944 17.6944C18.3545 16.4799 19.3136 14.881 19.7448 13.1093C20.1759 11.3377 20.0588 9.47686 19.4089 7.77324C18.759 6.06963 17.607 4.6036 16.1054 3.56927C14.6037 2.53495 12.8234 1.98112 11 1.98112C9.17664 1.98112 7.39627 2.53495 5.89466 3.56927C4.39304 4.6036 3.24101 6.06963 2.59111 7.77324C1.9412 9.47686 1.82408 11.3377 2.25526 13.1093C2.68643 14.881 3.64555 16.4799 5.00563 17.6944C5.02054 16.7105 5.42139 15.772 6.1218 15.0809C6.8222 14.3899 7.76608 14.0017 8.75 14H13.25C14.2339 14.0017 15.1778 14.3899 15.8782 15.0809ZM8.91661 5.63199C9.5333 5.21993 10.2583 5 11 5C11.9946 5 12.9484 5.39509 13.6517 6.09835C14.3549 6.80161 14.75 7.75544 14.75 8.75C14.75 9.49168 14.5301 10.2167 14.118 10.8334C13.706 11.4501 13.1203 11.9307 12.4351 12.2145C11.7498 12.4984 10.9958 12.5726 10.2684 12.4279C9.54099 12.2833 8.8728 11.9261 8.34835 11.4017C7.8239 10.8772 7.46675 10.209 7.32206 9.48159C7.17736 8.75416 7.25162 8.00016 7.53545 7.31494C7.81928 6.62971 8.29993 6.04404 8.91661 5.63199Z" fill="white"/>
</svg>
